<svg xmlns="http://www.w3.org/2000/svg" width="128" height="128" viewBox="0 0 128 128">
  <defs>
    <linearGradient id="bg" x1="0" y1="0" x2="1" y2="1">
      <stop offset="0%" stop-color="#1f4ea3"/>
      <stop offset="100%" stop-color="#38bdf8"/>
    </linearGradient>
  </defs>
  <circle cx="64" cy="64" r="60" fill="url(#bg)"/>
  <circle cx="64" cy="64" r="48" fill="#ffffff"/>
  <path d="M64 64 L64 16 A48 48 0 0 1 97.9 30.1 Z" fill="#f94144"/>
  <path d="M64 64 L97.9 30.1 A48 48 0 0 1 112 64 Z" fill="#f3722c"/>
  <path d="M64 64 L112 64 A48 48 0 0 1 97.9 97.9 Z" fill="#f8961e"/>
  <path d="M64 64 L97.9 97.9 A48 48 0 0 1 64 112 Z" fill="#f9c74f"/>
  <path d="M64 64 L64 112 A48 48 0 0 1 30.1 97.9 Z" fill="#90be6d"/>
  <path d="M64 64 L30.1 97.9 A48 48 0 0 1 16 64 Z" fill="#43aa8b"/>
  <path d="M64 64 L16 64 A48 48 0 0 1 30.1 30.1 Z" fill="#577590"/>
  <path d="M64 64 L30.1 30.1 A48 48 0 0 1 64 16 Z" fill="#277da1"/>
  <circle cx="64" cy="64" r="8" fill="#0f172a"/>
  <polygon points="64,4 56,20 72,20" fill="#ffffff"/>
</svg>
